# xmcd
#
# Track frame offsets: 
#        150
#        17824
#        31540
#        49321
#        62968
#        80087
#        96744
#        116201
#        131067
#        150366
#
# Disc length: 2344 seconds
#
# Revision: 2
# Processed by: cddbd v1.5.2PL0 Copyright (c) Steve Scherf et al.
# Submitted via: ExactAudioCopy v0.99pb3
#
DISCID=8809260a
DTITLE=John Foxx - Metamatic CD1
DYEAR=2007
DGENRE=Synthpop
TTITLE0=Plaza
TTITLE1=He's A Liquid
TTITLE2=Underpass
TTITLE3=Metal Beat
TTITLE4=No-One Driving
TTITLE5=A New Kind Of Man
TTITLE6=Blurred Girl
TTITLE7=030
TTITLE8=Tidal Wave
TTITLE9=Touch And Go
EXTD=
EXTT0=
EXTT1=
EXTT2=
EXTT3=
EXTT4=
EXTT5=
EXTT6=
EXTT7=
EXTT8=
EXTT9=
PLAYORDER=
